<?xml version="1.0" encoding="UTF-8" standalone="no"?>
<svg width="865px" height="378px" viewBox="0 0 865 378" version="1.1" xmlns="http://www.w3.org/2000/svg" xmlns:xlink="http://www.w3.org/1999/xlink" xmlns:sketch="http://www.bohemiancoding.com/sketch/ns">
    <!-- Generator: Sketch 3.3 (11970) - http://www.bohemiancoding.com/sketch -->
    <title>PatternA</title>
    <desc>Created with Sketch.</desc>
    <defs>
        <rect id="path-1" x="69" y="5" width="865" height="387"></rect>
        <rect id="path-3" x="1" y="87" width="1000" height="75"></rect>
        <rect id="path-4" x="1" y="97" width="1000" height="75"></rect>
        <rect id="path-5" x="1" y="87" width="1000" height="75"></rect>
        <rect id="path-6" x="1" y="97" width="1000" height="75"></rect>
    </defs>
    <g id="9-copy" stroke="none" stroke-width="1" fill="none" fill-rule="evenodd" sketch:type="MSPage">
        <g id="PatternA" sketch:type="MSLayerGroup" transform="translate(-69.000000, -10.000000)">
            <mask id="mask-2" sketch:name="Mask" fill="white">
                <use xlink:href="#path-1"></use>
            </mask>
            <use id="Mask" sketch:type="MSShapeGroup" xlink:href="#path-1"></use>
            <g id="10-copy-11">
                <use stroke="#FFF5F2" stroke-width="1" fill="#1E1E1E" fill-rule="evenodd" sketch:type="MSShapeGroup" mask="url(#mask-2)" transform="translate(501.000000, 124.500000) scale(-1, 1) rotate(-10.000000) translate(-501.000000, -124.500000) " xlink:href="#path-3"></use>
                <use stroke="none" fill="none" xlink:href="#path-3"></use>
            </g>
            <g id="10-copy-13">
                <use stroke="#FFF5F2" stroke-width="1" fill="#1E1E1E" fill-rule="evenodd" sketch:type="MSShapeGroup" mask="url(#mask-2)" transform="translate(501.000000, 134.500000) scale(-1, 1) rotate(-10.000000) translate(-501.000000, -134.500000) " xlink:href="#path-4"></use>
                <use stroke="none" fill="none" xlink:href="#path-4"></use>
            </g>
            <g id="10">
                <use stroke="#FFF5F2" stroke-width="1" fill="#1E1E1E" fill-rule="evenodd" sketch:type="MSShapeGroup" mask="url(#mask-2)" transform="translate(501.000000, 124.500000) rotate(-10.000000) translate(-501.000000, -124.500000) " xlink:href="#path-5"></use>
                <use stroke="none" fill="none" xlink:href="#path-5"></use>
            </g>
            <g id="10-copy-15">
                <use stroke="#FFF5F2" stroke-width="1" fill="#1E1E1E" fill-rule="evenodd" sketch:type="MSShapeGroup" mask="url(#mask-2)" transform="translate(501.000000, 134.500000) rotate(-10.000000) translate(-501.000000, -134.500000) " xlink:href="#path-6"></use>
                <use stroke="none" fill="none" xlink:href="#path-6"></use>
            </g>
            <rect id="10-copy-2" stroke="#FFF5F2" fill="#1E1E1E" sketch:type="MSShapeGroup" mask="url(#mask-2)" x="1" y="122" width="1000" height="75">
                <g transform="translate(501.000000, 159.500000) rotate(-10.000000) translate(-501.000000, -159.500000) "></g>
            </rect>
            <rect id="10-copy-10" stroke="#FFF5F2" fill="#1E1E1E" sketch:type="MSShapeGroup" mask="url(#mask-2)" x="1.15" y="122" width="999.7" height="75">
                <g transform="translate(501.000000, 169.500000) rotate(-10.000000) translate(-501.000000, -169.500000) "></g>
            </rect>
                <g transform="translate(501.000000, 159.500000) scale(-1, 1) rotate(-10.000000) translate(-501.000000, -159.500000) "></g>
            </rect>
            <rect id="10-copy-16" stroke="#FFF5F2" fill="#1E1E1E" sketch:type="MSShapeGroup" mask="url(#mask-2)" x="1.15" y="132" width="999.7" height="75">
                <g transform="translate(501.000000, 169.500000) scale(-1, 1) rotate(-10.000000) translate(-501.000000, -169.500000) "></g>
            </rect>
            <rect id="10-copy-14" stroke="#FFF5F2" fill="#1E1E1E" sketch:type="MSShapeGroup" mask="url(#mask-2)" x="1" y="132" width="1000" height="75">
            <rect id="10-copy-9" stroke="#FFF5F2" fill="#1E1E1E" sketch:type="MSShapeGroup" mask="url(#mask-2)" x="1" y="162" width="1000" height="75">
                <g transform="translate(501.000000, 199.500000) scale(-1, 1) rotate(-10.000000) translate(-501.000000, -199.500000) "></g>
            </rect>
            <rect id="10-copy-17" stroke="#FFF5F2" fill="#1E1E1E" sketch:type="MSShapeGroup" mask="url(#mask-2)" x="1" y="172" width="1000" height="75">
                <g transform="translate(501.000000, 209.500000) scale(-1, 1) rotate(-10.000000) translate(-501.000000, -209.500000) "></g>
            </rect>
            <rect id="10-copy" stroke="#FFF5F2" fill="#1E1E1E" sketch:type="MSShapeGroup" mask="url(#mask-2)" x="1" y="162" width="1000" height="75">
                <g transform="translate(501.000000, 199.500000) rotate(-10.000000) translate(-501.000000, -199.500000) "></g>
            </rect>
            <rect id="10-copy-18" stroke="#FFF5F2" fill="#1E1E1E" sketch:type="MSShapeGroup" mask="url(#mask-2)" x="1" y="172" width="1000" height="75">
                <g transform="translate(501.000000, 209.500000) rotate(-10.000000) translate(-501.000000, -209.500000) "></g>
            </rect>
            <rect id="10-copy-4" stroke="#FFF5F2" fill="#1E1E1E" sketch:type="MSShapeGroup" mask="url(#mask-2)" x="1" y="202" width="1000" height="75">
                <g transform="translate(501.000000, 239.500000) rotate(-10.000000) translate(-501.000000, -239.500000) "></g>
            </rect>
            <rect id="10-copy-19" stroke="#FFF5F2" fill="#1E1E1E" sketch:type="MSShapeGroup" mask="url(#mask-2)" x="1" y="212" width="1000" height="75">
                <g transform="translate(501.000000, 249.500000) rotate(-10.000000) translate(-501.000000, -249.500000) "></g>
            </rect>
            <rect id="10-copy-8" stroke="#FFF5F2" fill="#1E1E1E" sketch:type="MSShapeGroup" mask="url(#mask-2)" x="1" y="202" width="1000" height="75">
                <g transform="translate(501.000000, 239.500000) scale(-1, 1) rotate(-10.000000) translate(-501.000000, -239.500000) "></g>
            </rect>
            <rect id="10-copy-20" stroke="#FFF5F2" fill="#1E1E1E" sketch:type="MSShapeGroup" mask="url(#mask-2)" x="1" y="212" width="1000" height="75">
                <g transform="translate(501.000000, 249.500000) scale(-1, 1) rotate(-10.000000) translate(-501.000000, -249.500000) "></g>
            </rect>
            <rect id="10-copy-7" stroke="#FFF5F2" fill="#1E1E1E" sketch:type="MSShapeGroup" mask="url(#mask-2)" x="-2" y="242" width="1000" height="58">
                <g transform="translate(498.000000, 271.000000) scale(-1, 1) rotate(-10.000000) translate(-498.000000, -271.000000) "></g>
            </rect>
            <rect id="10-copy-21" stroke="#FFF5F2" fill="#1E1E1E" sketch:type="MSShapeGroup" mask="url(#mask-2)" x="-2" y="242" width="1000" height="58">
                <g transform="translate(498.000000, 271.000000) scale(-1, 1) rotate(-10.000000) translate(-498.000000, -271.000000) "></g>
            </rect>
            <rect id="10-copy-22" stroke="#FFF5F2" fill="#1E1E1E" sketch:type="MSShapeGroup" mask="url(#mask-2)" x="-2" y="252" width="1000" height="58">
                <g transform="translate(498.000000, 281.000000) scale(-1, 1) rotate(-10.000000) translate(-498.000000, -281.000000) "></g>
            </rect>
            <rect id="10-copy-3" stroke="#FFF5F2" fill="#1E1E1E" sketch:type="MSShapeGroup" mask="url(#mask-2)" x="-2" y="242" width="1000" height="58">
                <g transform="translate(498.000000, 271.000000) rotate(-10.000000) translate(-498.000000, -271.000000) "></g>
            </rect>
            <rect id="10-copy-5" stroke="#FFF5F2" fill="#1E1E1E" sketch:type="MSShapeGroup" mask="url(#mask-2)" x="-2" y="242" width="1000" height="58">
                <g transform="translate(498.000000, 271.000000) rotate(-10.000000) translate(-498.000000, -271.000000) "></g>
            </rect>
            <rect id="10-copy-23" stroke="#FFF5F2" fill="#1E1E1E" sketch:type="MSShapeGroup" mask="url(#mask-2)" x="-2" y="252" width="1000" height="58">
                <g transform="translate(498.000000, 281.000000) rotate(-10.000000) translate(-498.000000, -281.000000) "></g>
            </rect>
            <rect id="10-copy-6" stroke="#FFF5F2" fill="#1E1E1E" sketch:type="MSShapeGroup" mask="url(#mask-2)" x="-2" y="242" width="1000" height="58">
                <g transform="translate(498.000000, 271.000000) scale(-1, 1) rotate(-10.000000) translate(-498.000000, -271.000000) "></g>
            </rect>
            <rect id="10-copy-12" stroke="#FFF5F2" fill="#1E1E1E" sketch:type="MSShapeGroup" mask="url(#mask-2)" x="-2" y="242" width="1000" height="58">
                <g transform="translate(498.000000, 271.000000) scale(-1, 1) rotate(-10.000000) translate(-498.000000, -271.000000) "></g>
            </rect>
            <rect id="10-copy-24" stroke="#FFF5F2" fill="#1E1E1E" sketch:type="MSShapeGroup" mask="url(#mask-2)" x="-2" y="252" width="1000" height="58">
                <g transform="translate(498.000000, 281.000000) scale(-1, 1) rotate(-10.000000) translate(-498.000000, -281.000000) "></g>
            </rect>
        </g>
    </g>
</svg>
